<?xml version="1.0" encoding="utf-8"?>
<!-- Generator: Adobe Illustrator 23.0.0, SVG Export Plug-In . SVG Version: 6.00 Build 0)  -->
<svg version="1.1" id="Layer_1" xmlns="http://www.w3.org/2000/svg" xmlns:xlink="http://www.w3.org/1999/xlink" x="0px" y="0px"
	 viewBox="0 0 1920 733" style="enable-background:new 0 0 1920 733;" xml:space="preserve">
<style type="text/css">
	.st0{display:none;}
	.st1{display:inline;fill:#BCBCBC;stroke:#000000;stroke-miterlimit:10;}
	.st2{display:inline;fill:#FFFFFF;stroke:#000000;stroke-miterlimit:10;}
	.st3{display:inline;}
	.st4{fill:#FFFFFF;stroke:#000000;stroke-miterlimit:10;}
	.st5{fill:none;stroke:#000000;stroke-miterlimit:10;}
	.st6{display:inline;opacity:0.7;fill:#FFFFFF;stroke:#000000;stroke-miterlimit:10;enable-background:new    ;}
	.st7{opacity:0.7;fill:#FFFFFF;stroke:#000000;stroke-miterlimit:10;enable-background:new    ;}
	.st8{display:inline;opacity:0.3;fill:#FFFFFF;stroke:#000000;stroke-miterlimit:10;enable-background:new    ;}
	.st9{font-family:'ArialMT';}
	.st10{font-size:61.6679px;}
	.st11{font-size:12px;}
	.st12{font-size:34.1556px;}
	.st13{display:inline;fill:#FF0000;}
	.st14{font-size:22.1902px;}
	.st15{fill:#BCBCBC;stroke:#000000;stroke-miterlimit:10;}
</style>
<g class="st0">
	
		<image style="display:inline;overflow:visible;opacity:0.49;enable-background:new    ;" width="2560" height="1920" id="background" xlink:href="ebene_1.jpg"  transform="matrix(0.7458 0 0 0.7458 9 -423)">
	</image>
	<rect id="back_x5F_print" x="67.5" y="201.5" class="st1" width="613" height="404"/>
	<polygon id="ground-1" class="st1" points="1820,291.5 1820,42.5 1469,42.5 1469,281.5 1091.5,281.5 1091.5,69.5 753.5,69.5 
		753.5,302.5 758.5,302.5 758.5,331.5 753.5,331.5 753.5,407.5 1091.5,407.5 1820.5,407.5 1820.5,322.5 1808.5,322.5 1808.5,291.5 	
		"/>
	<rect id="_x31_-2-12" x="753.5" y="68.5" class="st2" width="95" height="73"/>
	<rect id="_x31_-2-13" x="848.5" y="68.5" class="st2" width="78" height="73"/>
	<rect id="_x31_-2-15" x="925.5" y="68.5" class="st2" width="77" height="73"/>
	<rect id="_x31_-2-11" x="753.5" y="141.5" class="st2" width="73" height="86"/>
	<rect id="_x31_-2-10" x="743.5" y="227.5" class="st2" width="83" height="75"/>
	<rect id="_x31_-2-14" x="848.5" y="174.5" class="st2" width="133" height="44"/>
	<rect id="_x31_-2-03" x="848.5" y="218.5" class="st2" width="133" height="80"/>
	<polygon id="_x31_-2-17" class="st2" points="1002.5,161.5 1002.5,298 1068.5,298 1068.5,286.9 1091.5,286.9 1091.5,161.5 	"/>
	<rect id="_x31_-1-stairs" x="1091.5" y="194.5" class="st2" width="50" height="99"/>
	<rect x="1091.5" y="222.5" class="st2" width="25" height="5"/>
	<rect x="1091.5" y="227.5" class="st2" width="25" height="5"/>
	<rect x="1091.5" y="232.5" class="st2" width="25" height="5"/>
	<rect x="1091.5" y="237.5" class="st2" width="25" height="5"/>
	<rect x="1091.5" y="242.5" class="st2" width="25" height="5"/>
	<rect x="1091.5" y="247.5" class="st2" width="25" height="5"/>
	<rect x="1116.5" y="221.5" class="st2" width="25" height="5"/>
	<rect x="1116.5" y="226.5" class="st2" width="25" height="5"/>
	<rect x="1116.5" y="231.5" class="st2" width="25" height="5"/>
	<rect x="1116.5" y="236.5" class="st2" width="25" height="5"/>
	<rect x="1116.5" y="241.5" class="st2" width="25" height="5"/>
	<rect x="1116.5" y="246.5" class="st2" width="25" height="5"/>
	<rect x="1141.5" y="237.5" class="st2" width="34" height="45"/>
	<polygon id="_x31_-1-cafetaria" class="st2" points="1335.5,260 1335.5,191.5 1278.5,191.5 1278.5,179.9 1267.1,168.5 1189,168.5 
		1175.5,182 1175.5,282.5 1190.5,282.5 1190.5,293.1 1201.9,304.5 1311.5,304.5 1311.5,271.5 1324,271.5 	"/>
	<polygon id="_x31_-1-16" class="st2" points="1378.5,191.5 1335.5,191.5 1335.5,248.5 1392.5,248.5 1392.5,205.5 	"/>
	<polygon id="_x31_-1-15" class="st2" points="1335.5,248.5 1335.5,260.5 1323.5,271.5 1311.5,271.5 1311.5,304.5 1322.5,314.5 
		1380.3,314.5 1392.5,302.3 1392.5,247.5 	"/>
	<rect x="1392.5" y="233.5" class="st2" width="33" height="48"/>
	<rect id="_x31_-3-02" x="1469.5" y="168.5" class="st2" width="105" height="111"/>
	<rect id="_x31_-3-15" x="1469.5" y="42.5" class="st2" width="82.2" height="102"/>
	<rect id="_x31_-3-14" x="1551.7" y="42.5" class="st2" width="89.4" height="102"/>
	<rect id="_x31_-3-13" x="1641.2" y="42.5" class="st2" width="89.4" height="102"/>
	<rect id="_x31_-3-12" x="1730.6" y="42.5" class="st2" width="89.4" height="102"/>
	<rect id="_x31_-3-04" x="1574.5" y="178.5" class="st2" width="55" height="90"/>
	<rect id="_x31_-3-06" x="1681.5" y="176.5" class="st2" width="55" height="89"/>
	<path class="st2" d="M1737.5,179.5"/>
	<path class="st2" d="M1737.5,195.4"/>
	<path id="_x31_-3-08" class="st2" d="M1746.5,144.5c0,10.4,0,20.9,0,31.3c0,0.2,0,0.5,0,0.7h-10v96h10h73v-128
		C1795.2,144.5,1770.8,144.5,1746.5,144.5z"/>
	<rect x="1709.5" y="265.5" class="st2" width="27" height="7"/>
	<rect x="1574.5" y="268.5" class="st2" width="27" height="7"/>
	<rect id="_x31_-3-01" x="1509.5" y="319.5" class="st2" width="58" height="87"/>
	<rect id="_x31_-3-03" x="1567.5" y="319.5" class="st2" width="58" height="87"/>
	<rect id="_x31_-3-05" x="1622.5" y="319.5" class="st2" width="77" height="87"/>
	<rect id="_x31_-3-07" x="1699.5" y="319.5" class="st2" width="55" height="87"/>
	<polygon class="st2" points="1509.5,406.5 1480.5,406.5 1479.5,373.5 1488.5,372.5 1487.5,340.5 1477.5,327.5 1487.5,319.5 
		1509.5,319.5 	"/>
	<polygon id="_x31_-3-toilette" class="st2" points="1754.5,349.5 1754.5,406.5 1768.5,406.5 1768.5,424.5 1803,424.5 1803,349.5 	
		"/>
	<polygon class="st2" points="1843.5,405 1843.5,322 1803,322 1803,409.5 1839.3,409.5 	"/>
	<polygon id="_x31_-1-mensa" class="st2" points="1417.4,587.5 1435.8,587.5 1446,577.5 1446,483.2 1435.2,470.5 1417.4,470.5 
		1417.4,406.5 1179.5,406.5 1179.5,525.5 1203,525.5 1203,543.5 1229.5,543.5 1229.5,587.5 	"/>
	<polygon class="st2" points="1228.5,587.5 1228.5,543.5 1202.5,543.5 1202.5,525.5 1179.5,525.5 1179.5,406.5 1147.5,406.5 
		1147.5,446.5 1138,446.5 1126.5,458 1126.5,625.5 1232.5,625.5 1232.5,587.5 	"/>
	<rect id="_x31_-2-05" x="814.5" y="329.5" class="st2" width="81" height="77"/>
	<rect id="_x31_-2-02" x="895.5" y="329.5" class="st2" width="151" height="77"/>
	<polygon id="_x31_-2-01" class="st2" points="1080.1,373.5 1080.1,329.5 1046,329.5 1046,406.5 1057.4,406.5 1080.1,406.5 
		1093.5,406.5 1093.5,373.5 	"/>
	<polygon id="_x31_-1-toilette_1_" class="st2" points="1162.3,371.5 1147,387.7 1147,406.5 1203.5,406.5 1203.5,371.5 	"/>
	<polygon class="st2" points="1306.5,362.5 1306.5,367.5 1268.5,367.5 1268.5,362.5 1237.5,362.5 1237.5,406.5 1335.5,406.5 
		1335.5,362.5 	"/>
	<polygon id="_x31_-1-toilette" class="st2" points="1402.2,372.5 1417.5,388.7 1417.5,407.5 1361,407.5 1361,372.5 	"/>
	<rect id="r12_8_" x="1425.5" y="192.5" class="st2" width="43.5" height="99"/>
	<rect x="1425.5" y="220.5" class="st2" width="21.8" height="5"/>
	<rect x="1425.5" y="225.5" class="st2" width="21.8" height="5"/>
	<rect x="1425.5" y="230.5" class="st2" width="21.8" height="5"/>
	<rect x="1425.5" y="235.5" class="st2" width="21.8" height="5"/>
	<rect x="1425.5" y="240.5" class="st2" width="21.8" height="5"/>
	<rect x="1425.5" y="245.5" class="st2" width="21.8" height="5"/>
	<rect x="1447.3" y="219.5" class="st2" width="21.8" height="5"/>
	<rect x="1447.3" y="224.5" class="st2" width="21.8" height="5"/>
	<rect x="1447.3" y="229.5" class="st2" width="21.8" height="5"/>
	<rect x="1447.3" y="234.5" class="st2" width="21.8" height="5"/>
	<rect x="1447.3" y="239.5" class="st2" width="21.8" height="5"/>
	<rect x="1447.3" y="244.5" class="st2" width="21.8" height="5"/>
	<rect x="804.5" y="263.5" class="st2" width="22" height="39"/>
	<polygon class="st2" points="806.8,427.8 806.8,408.5 814.5,408.5 814,351.5 769,351.5 769,428.3 770.6,430 804.3,430.5 	"/>
	<polygon class="st2" points="727,412.5 727,331 769,331 769,417 731.3,417 	"/>
	<g class="st3">
		<rect x="1823" y="346.5" class="st4" width="20" height="5"/>
		<rect x="1823" y="351.5" class="st4" width="20" height="5"/>
		<rect x="1823" y="356.5" class="st4" width="20" height="5"/>
		<rect x="1823" y="361.5" class="st4" width="20" height="5"/>
		<rect x="1823" y="366.5" class="st4" width="20" height="5"/>
		<rect x="1823" y="371.5" class="st4" width="20" height="5"/>
		<rect x="1803" y="345.5" class="st4" width="20" height="5"/>
		<rect x="1803" y="350.5" class="st4" width="20" height="5"/>
		<rect x="1803" y="355.5" class="st4" width="20" height="5"/>
		<rect x="1803" y="360.5" class="st4" width="20" height="5"/>
		<rect x="1803" y="365.5" class="st4" width="20" height="5"/>
		<rect x="1803" y="370.5" class="st4" width="20" height="5"/>
	</g>
	<g class="st3">
		<rect x="727" y="377.5" class="st4" width="20.8" height="5"/>
		<rect x="747.8" y="371.5" class="st4" width="20.8" height="5"/>
		<g>
			<rect x="727" y="357.5" class="st4" width="20.8" height="5"/>
			<rect x="727" y="362.5" class="st4" width="20.8" height="5"/>
			<rect x="727" y="367.5" class="st4" width="20.8" height="5"/>
			<rect x="727" y="372.5" class="st4" width="20.8" height="5"/>
			<rect x="727" y="382.5" class="st4" width="20.8" height="5"/>
			<rect x="747.8" y="356.5" class="st4" width="20.8" height="5"/>
			<rect x="747.8" y="361.5" class="st4" width="20.8" height="5"/>
			<rect x="747.8" y="366.5" class="st4" width="20.8" height="5"/>
			<rect x="747.8" y="376.5" class="st4" width="20.8" height="5"/>
			<rect x="747.8" y="381.5" class="st4" width="20.8" height="5"/>
		</g>
	</g>
	<rect id="_x31_-2-16" x="1002.5" y="68.5" class="st2" width="89" height="73"/>
	<g class="st3">
		<polygon class="st4" points="1299,398 1276.5,398 1276.5,375.5 1299,375.5 1299,377.9 		"/>
		<line class="st5" x1="1276.5" y1="398" x2="1299" y2="375.5"/>
		<line class="st5" x1="1299" y1="398" x2="1276.5" y2="375.5"/>
	</g>
	<rect id="_x31_-4-29" x="67.5" y="488.5" class="st2" width="92" height="117"/>
	<rect id="_x31_-4-28" x="159.5" y="488.5" class="st2" width="89" height="117"/>
	<polygon id="_x31_-4-27" class="st2" points="337.5,488.5 248.5,488.5 248.5,605.5 337.5,605.5 337.5,507.5 359.5,507.5 
		359.5,488.5 	"/>
	<rect id="_x31_-4-17" x="337.5" y="507.5" class="st2" width="40" height="98"/>
	<polygon id="_x31_-4-15" class="st2" points="415.5,462.5 415.5,521.5 427.5,521.5 427.5,605.5 516.5,605.5 516.5,462.5 	"/>
	<rect id="_x31_-4-16" x="377.5" y="521.5" class="st2" width="50" height="84"/>
	<rect id="_x31_-4-12" x="415.5" y="413.5" class="st2" width="84" height="48"/>
	<rect x="499.5" y="413.5" class="st2" width="17" height="48"/>
	<polygon id="_x31_-4-11" class="st2" points="516.5,413 516.5,489.8 585.5,489.8 585.5,605.5 680.5,605.5 680.5,413 	"/>
	<rect id="_x31_-4-01" x="642.5" y="556.5" class="st6" width="38" height="49"/>
	<polygon id="_x31_-4-19" class="st2" points="92.5,336.5 140.5,336.5 140.5,201.5 67.5,201.5 67.5,351.5 92.5,351.5 	"/>
	<polygon id="_x31_-4-19-a" class="st2" points="140.5,201.5 140.5,336.5 310.5,336.5 310.5,351.5 364,351.5 364,201.5 	"/>
	<rect id="_x31_-4-23-25" x="92.5" y="336.5" class="st2" width="103" height="52"/>
	<rect id="_x31_-4-23-25_1_" x="195.5" y="336.5" class="st2" width="115" height="52"/>
	<rect id="_x31_-4-30-32" x="93.5" y="417.5" class="st2" width="100" height="52"/>
	<rect id="_x31_-4-26" x="193.5" y="417.5" class="st2" width="117" height="52"/>
	<g id="_x3C_Group_x3E_stairs" class="st3">
		<rect x="629.5" y="466.5" class="st7" width="51" height="28"/>
		<rect x="644.3" y="467" class="st4" width="5" height="13.5"/>
		<rect x="650.3" y="480.5" class="st4" width="5" height="13.5"/>
		<g>
			<rect x="664.3" y="467" class="st4" width="5" height="13.5"/>
			<rect x="659.3" y="467" class="st4" width="5" height="13.5"/>
			<rect x="654.3" y="467" class="st4" width="5" height="13.5"/>
			<rect x="649.3" y="467" class="st4" width="5" height="13.5"/>
			<rect x="639.3" y="467" class="st4" width="5" height="13.5"/>
			<rect x="665.3" y="480.5" class="st4" width="5" height="13.5"/>
			<rect x="660.3" y="480.5" class="st4" width="5" height="13.5"/>
			<rect x="655.3" y="480.5" class="st4" width="5" height="13.5"/>
			<rect x="645.3" y="480.5" class="st4" width="5" height="13.5"/>
			<rect x="640.3" y="480.5" class="st4" width="5" height="13.5"/>
		</g>
	</g>
	<polygon id="_x31_-4-02-a" class="st2" points="416,348.5 416,335.5 516.5,335.5 553.5,335.5 553.5,201.5 383.5,201.5 383.5,294 
		391,294 391,348.5 	"/>
	<polygon id="_x31_-4-toilette" class="st2" points="393.5,507.5 359.5,507.5 359.5,488.5 333.5,488.5 333.5,427.5 393.5,427.5 	"/>
	<rect x="377" y="321.8" class="st2" width="13.5" height="5"/>
	<rect x="363.5" y="314.8" class="st2" width="13.5" height="5"/>
	<rect x="377" y="341.8" class="st2" width="13.5" height="5"/>
	<rect x="377" y="336.8" class="st2" width="13.5" height="5"/>
	<rect x="377" y="331.8" class="st2" width="13.5" height="5"/>
	<rect x="642.5" y="336.5" class="st2" width="38" height="32"/>
	<rect x="377" y="326.8" class="st2" width="13.5" height="5"/>
	<rect x="377" y="316.8" class="st2" width="13.5" height="5"/>
	<rect x="363.5" y="329.8" class="st2" width="13.5" height="5"/>
	<rect x="363.5" y="324.8" class="st2" width="13.5" height="5"/>
	<rect x="363.5" y="319.8" class="st2" width="13.5" height="5"/>
	<rect x="363.5" y="309.8" class="st2" width="13.5" height="5"/>
	<rect x="363.5" y="304.8" class="st2" width="13.5" height="5"/>
	<rect x="363.5" y="201.5" class="st2" width="20" height="92"/>
	<rect id="_x31_-4-04" x="383.5" y="201.5" class="st2" width="45" height="69"/>
	<rect x="363.5" y="294" class="st2" width="27.5" height="76.5"/>
	<rect id="_x31_-4-10" x="415.5" y="334.5" class="st2" width="104" height="52"/>
	<rect id="_x31_-4-05" x="519.5" y="334.5" class="st2" width="102" height="52"/>
	<polygon id="_x31_-4-02" class="st2" points="553.5,201.5 553.5,334.5 621.5,334.5 621.5,355.5 642.5,355.5 642.5,309.5 
		680.5,309.5 680.5,201.5 	"/>
	<rect x="642.5" y="309.5" class="st8" width="38" height="27"/>
	<g class="st3">
		<polygon class="st4" points="672,362 650.5,362 650.5,340.5 672,340.5 672,342.8 		"/>
		<line class="st5" x1="650.5" y1="362" x2="672" y2="340.5"/>
		<line class="st5" x1="672" y1="362" x2="650.5" y2="340.5"/>
	</g>
	<rect x="642.5" y="309.5" class="st2" width="38" height="27"/>
	<polygon class="st2" points="23,297 23,386.2 24.8,388 67,388 67,297 	"/>
	<g class="st3">
		<rect x="46" y="334" class="st4" width="21" height="5"/>
		<rect x="46" y="354" class="st4" width="21" height="5"/>
		<rect x="46" y="349" class="st4" width="21" height="5"/>
		<rect x="46" y="344" class="st4" width="21" height="5"/>
		<rect x="46" y="339" class="st4" width="21" height="5"/>
		<rect x="46" y="329" class="st4" width="21" height="5"/>
	</g>
	<g class="st3">
		<rect x="23.3" y="344" class="st4" width="22.7" height="5"/>
		<rect x="23.3" y="359" class="st4" width="22.7" height="5"/>
		<rect x="23.3" y="354" class="st4" width="22.7" height="5"/>
		<rect x="23.3" y="349" class="st4" width="22.7" height="5"/>
		<rect x="23.3" y="339" class="st4" width="22.7" height="5"/>
		<rect x="23.3" y="334" class="st4" width="22.7" height="5"/>
	</g>
	<text transform="matrix(1.0343 0 0 1 1644.2207 715.582)" class="st3 st9 st10">EBENE 1</text>
	<rect id="_x31_-4-11-a" x="516.5" y="488.5" class="st2" width="69" height="117"/>
	<text transform="matrix(1 0 0 1 847.3696 367.1401)" class="st3 st9 st11">05</text>
	<text transform="matrix(1 0 0 1 963.3696 367.1401)" class="st3 st9 st11">02</text>
	<text transform="matrix(1 0 0 1 1058.3696 367.1401)" class="st3 st9 st11">01</text>
	<text transform="matrix(1 0 0 1 774.3696 263.1401)" class="st3 st9 st11">10</text>
	<text transform="matrix(1 0 0 1 783.3696 199.1401)" class="st3 st9 st11">11</text>
	<text transform="matrix(1 0 0 1 790.3696 119.1401)" class="st3 st9 st11">12</text>
	<text transform="matrix(1 0 0 1 878.3696 119.1401)" class="st3 st9 st11">13</text>
	<text transform="matrix(1 0 0 1 953.3696 119.1401)" class="st3 st9 st11">15</text>
	<text transform="matrix(1 0 0 1 1035.3696 119.1401)" class="st3 st9 st11">16</text>
	<text transform="matrix(1 0 0 1 904.3696 207.1401)" class="st3 st9 st11">14</text>
	<text transform="matrix(1 0 0 1 907.3696 265.1401)" class="st3 st9 st11">03</text>
	<text transform="matrix(1 0 0 1 1033.3696 234.1401)" class="st3 st9 st11">17</text>
	<text transform="matrix(1 0 0 1 1219.4463 247.9043)" class="st3 st9 st11">CAFETARIA</text>
	<text transform="matrix(1 0 0 1 1353.3696 225.1401)" class="st3 st9 st11">16</text>
	<text transform="matrix(1 0 0 1 1353.3696 281.1401)" class="st3 st9 st11">15</text>
	<text transform="matrix(1 0 0 1 1501.0254 100.5415)" class="st3 st9 st11">15</text>
	<text transform="matrix(1 0 0 1 1584.0254 100.5415)" class="st3 st9 st11">14</text>
	<text transform="matrix(1 0 0 1 1677.0254 100.5415)" class="st3 st9 st11">13</text>
	<text transform="matrix(1 0 0 1 1768.0254 100.5415)" class="st3 st9 st11">12</text>
	<text transform="matrix(1 0 0 1 1512.3945 229.8916)" class="st3 st9 st11">02</text>
	<text transform="matrix(1 0 0 1 1593.3945 230.8916)" class="st3 st9 st11">04</text>
	<text transform="matrix(1 0 0 1 1705.3945 230.8916)" class="st3 st9 st11">06</text>
	<text transform="matrix(1 0 0 1 1769.3945 230.8916)" class="st3 st9 st11">08</text>
	<text transform="matrix(1 0 0 1 1484.5029 385.4839)" class="st3 st9 st11">HM</text>
	<text transform="matrix(1 0 0 1 1529.9043 366.2993)" class="st3 st9 st11">01</text>
	<text transform="matrix(1 0 0 1 1587.9043 365.2993)" class="st3 st9 st11">03</text>
	<text transform="matrix(1 0 0 1 1652.9043 365.2993)" class="st3 st9 st11">05</text>
	<text transform="matrix(1 0 0 1 1719.9043 365.2993)" class="st3 st9 st11">07</text>
	<text transform="matrix(1 0 0 1 1770.79 374.6436)" class="st3 st9 st11">WC</text>
	<text transform="matrix(1 0 0 1 1373.79 394.6436)" class="st3 st9 st11">WC</text>
	<text transform="matrix(1 0 0 1 1167.79 390.6436)" class="st3 st9 st11">WC</text>
	<text transform="matrix(1 0 0 1 1274.4463 492.9043)" class="st3 st9 st11">MENSA</text>
	<text transform="matrix(1 0 0 1 1147.4463 575.9043)" class="st3 st9 st11">KÜCHE</text>
	<text transform="matrix(1 0 0 1 779.79 382.6436)" class="st3 st9 st11">WC</text>
	<text transform="matrix(1 0 0 1 95.5732 276.917)" class="st3 st9 st11">19</text>
	<text transform="matrix(1 0 0 1 229.5732 276.917)" class="st3 st9 st11">19a</text>
	<text transform="matrix(1 0 0 1 475.5732 276.917)" class="st3 st9 st11">02a</text>
	<text transform="matrix(1 0 0 1 598.5732 276.917)" class="st3 st9 st11">02</text>
	<text transform="matrix(1 0 0 1 130.4204 366.5542)" class="st3 st9 st11">23-25</text>
	<text transform="matrix(1 0 0 1 239.4204 367.5542)" class="st3 st9 st11">20-22</text>
	<text transform="matrix(1 0 0 1 125.4204 447.5542)" class="st3 st9 st11">30-32</text>
	<text transform="matrix(1 0 0 1 243.5732 447.917)" class="st3 st9 st11">26</text>
	<text transform="matrix(1 0 0 1 104.5732 552.917)" class="st3 st9 st11">29</text>
	<text transform="matrix(1 0 0 1 197.5732 552.917)" class="st3 st9 st11">28</text>
	<text transform="matrix(1 0 0 1 280.5732 552.917)" class="st3 st9 st11">27</text>
	<text transform="matrix(1 0 0 1 351.5732 563.917)" class="st3 st9 st11">17</text>
	<text transform="matrix(1 0 0 1 394.5732 568.917)" class="st3 st9 st11">16</text>
	<text transform="matrix(1 0 0 1 457.5732 546.917)" class="st3 st9 st11">15</text>
	<text transform="matrix(1 0 0 1 451.5732 443.917)" class="st3 st9 st11">12</text>
	<text transform="matrix(1 0 0 1 563.5732 462.917)" class="st3 st9 st11">11</text>
	<text transform="matrix(1 0 0 1 460.5732 364.917)" class="st3 st9 st11">10</text>
	<text transform="matrix(1 0 0 1 563.5732 364.917)" class="st3 st9 st11">05</text>
	<text transform="matrix(1 0 0 1 537.5732 546.917)" class="st3 st9 st11">11a</text>
	<text transform="matrix(1 0 0 1 656.5732 580.917)" class="st3 st9 st11">01</text>
	<text transform="matrix(1 0 0 1 349.6367 452.8979)" class="st3 st9 st11">WC</text>
	<text transform="matrix(1 0 0 1 399.5732 241.917)" class="st3 st9 st11">04</text>
	<text transform="matrix(1 0 0 1 67.5732 193.4609)" class="st3 st9 st12">1.4</text>
	<text transform="matrix(1 0 0 1 747.5732 60.4609)" class="st3 st9 st12">1.2</text>
	<text transform="matrix(1 0 0 1 1260.5732 65.4609)" class="st3 st9 st12">1.1</text>
	<text transform="matrix(1 0 0 1 1770.5732 38.4609)" class="st3 st9 st12">1.3</text>
	<polygon class="st13" points="686.4,399.6 703,383 703.3,416.6 	"/>
	<text transform="matrix(0.7738 0 0 1 686.1563 452.4521)" class="st3 st9 st14">EINGANG</text>
	<polygon class="st13" points="1453.8,416 1470.9,432.2 1437.4,433.4 	"/>
	<text transform="matrix(0.7738 0 0 1 1425.1563 458.4521)" class="st3 st9 st14">EINGANG</text>
</g>
<polygon id="floor" class="st15" points="1412.3,219 1412.3,196 1130.3,196 1130.3,289 799.3,289 786.3,289 666.3,289 666.3,199 
	66.3,199 66.3,609 666.3,609 666.3,418 799.3,418 799.3,404 1130.3,404 1130.3,425 1412.3,425 1412.3,403 1811.3,403 1811.3,219 "/>
<rect x="631.3" y="343" class="st4" width="35" height="28"/>
<rect x="350.3" y="297.5" class="st4" width="32" height="76.5"/>
<rect id="r2-4-29" x="66.3" y="447" class="st4" width="92" height="162"/>
<rect id="r2-4-29-a" x="158.3" y="447" class="st4" width="89" height="162"/>
<polygon id="r2-4-30" class="st4" points="332.3,443.5 247.3,443.5 247.3,609 332.3,609 332.3,470.3 332.3,470.3 "/>
<rect id="r2-4-18" x="332.3" y="535" class="st4" width="44" height="74"/>
<rect id="r2-4-17" x="376.3" y="535" class="st4" width="23" height="74"/>
<rect id="r2-4-8" x="409.3" y="419" class="st4" width="182" height="95"/>
<polygon id="r2-4-22-b" class="st4" points="93.9,339.4 158.8,339.4 158.8,199.5 66.3,199.5 66.3,355 93.9,355 "/>
<rect id="r2-4-34" x="92.3" y="425" class="st4" width="104" height="48"/>
<g id="_x3C_Group_x3E_stairs_1_">
	<rect x="617.3" y="476" class="st7" width="51" height="28"/>
	<rect x="632" y="476.5" class="st4" width="5" height="13.5"/>
	<rect x="638" y="490" class="st4" width="5" height="13.5"/>
	<g>
		<rect x="652" y="476.5" class="st4" width="5" height="13.5"/>
		<rect x="647" y="476.5" class="st4" width="5" height="13.5"/>
		<rect x="642" y="476.5" class="st4" width="5" height="13.5"/>
		<rect x="637" y="476.5" class="st4" width="5" height="13.5"/>
		<rect x="627" y="476.5" class="st4" width="5" height="13.5"/>
		<rect x="653" y="490" class="st4" width="5" height="13.5"/>
		<rect x="648" y="490" class="st4" width="5" height="13.5"/>
		<rect x="643" y="490" class="st4" width="5" height="13.5"/>
		<rect x="633" y="490" class="st4" width="5" height="13.5"/>
		<rect x="628" y="490" class="st4" width="5" height="13.5"/>
	</g>
</g>
<polygon id="r2-4-toilette" class="st4" points="385.8,511 355.4,511 332.3,511 332.3,492 332.3,431 385.8,431 "/>
<rect x="350.3" y="340.2" class="st4" width="17.5" height="5.2"/>
<g>
	<rect x="350.3" y="330.2" class="st4" width="16.5" height="5"/>
	<rect x="350.3" y="345.2" class="st4" width="16.5" height="5"/>
	<rect x="350.3" y="335.2" class="st4" width="16.5" height="5"/>
	<rect x="350.3" y="325.2" class="st4" width="16.5" height="5"/>
	<rect x="350.3" y="320.2" class="st4" width="16.5" height="5"/>
</g>
<rect id="r2-4-7" x="409.3" y="338" class="st4" width="99" height="52"/>
<rect id="r2-4-6" x="508.3" y="338" class="st4" width="99" height="52"/>
<g>
	<polygon class="st4" points="659.8,367.5 638.3,367.5 638.3,346 659.8,346 659.8,348.3 	"/>
	<line class="st5" x1="638.3" y1="367.5" x2="659.8" y2="346"/>
	<line class="st5" x1="659.8" y1="367.5" x2="638.3" y2="346"/>
</g>
<polygon class="st4" points="21.8,300.5 21.8,389.7 23.5,391.5 65.8,391.5 65.8,300.5 "/>
<g>
	<rect x="44.8" y="337.5" class="st4" width="21" height="5"/>
	<rect x="44.8" y="357.5" class="st4" width="21" height="5"/>
	<rect x="44.8" y="352.5" class="st4" width="21" height="5"/>
	<rect x="44.8" y="347.5" class="st4" width="21" height="5"/>
	<rect x="44.8" y="342.5" class="st4" width="21" height="5"/>
	<rect x="44.8" y="332.5" class="st4" width="21" height="5"/>
</g>
<g>
	<rect x="22.1" y="347.5" class="st4" width="22.7" height="5"/>
	<rect x="22.1" y="362.5" class="st4" width="22.7" height="5"/>
	<rect x="22.1" y="357.5" class="st4" width="22.7" height="5"/>
	<rect x="22.1" y="352.5" class="st4" width="22.7" height="5"/>
	<rect x="22.1" y="342.5" class="st4" width="22.7" height="5"/>
	<rect x="22.1" y="337.5" class="st4" width="22.7" height="5"/>
</g>
<rect id="r2-4-16" x="399.3" y="535" class="st4" width="45" height="74"/>
<rect id="r2-4-15" x="444.3" y="535" class="st4" width="34" height="74"/>
<rect id="r2-4-14" x="478.3" y="535" class="st4" width="37" height="74"/>
<rect id="r2-4-13" x="515.3" y="535" class="st4" width="31" height="74"/>
<rect id="r2-4-12" x="546.3" y="535" class="st4" width="41" height="74"/>
<rect id="r2-4-toilette_1_" x="607.3" y="418" class="st4" width="64" height="58"/>
<rect x="607.3" y="462" class="st4" width="31" height="16"/>
<rect id="r2-4-5_1_" x="799.3" y="336" class="st4" width="90" height="92"/>
<path class="st4" d="M1735.3,334"/>
<path class="st4" d="M1735.3,349.8"/>
<polygon id="r2-2-toilette" class="st4" points="791,437.3 791,418 799.3,418 799.3,361 754.3,361 754.3,440 788.5,439.9 "/>
<polygon class="st4" points="711.8,421.3 711.8,336 754.3,336 754.3,426 716.1,426 "/>
<g>
	<rect x="711.8" y="384" class="st4" width="21.3" height="5"/>
	<rect x="733" y="378" class="st4" width="21.3" height="5"/>
	<g>
		<rect x="711.8" y="364" class="st4" width="21.3" height="5"/>
		<rect x="711.8" y="369" class="st4" width="21.3" height="5"/>
		<rect x="711.8" y="374" class="st4" width="21.3" height="5"/>
		<rect x="711.8" y="379" class="st4" width="21.3" height="5"/>
		<rect x="711.8" y="389" class="st4" width="21.3" height="5"/>
		<rect x="733" y="363" class="st4" width="21.3" height="5"/>
		<rect x="733" y="368" class="st4" width="21.3" height="5"/>
		<rect x="733" y="373" class="st4" width="21.3" height="5"/>
		<rect x="733" y="383" class="st4" width="21.3" height="5"/>
		<rect x="733" y="388" class="st4" width="21.3" height="5"/>
	</g>
</g>
<polygon class="st4" points="1078.6,195.5 1073.7,200.3 1073.3,300 1125.8,299.5 1125.8,195.5 "/>
<g>
	<rect x="1074.3" y="244" class="st4" width="26" height="5"/>
	<rect x="1100.3" y="238" class="st4" width="26" height="5"/>
	<g>
		<rect x="1074.3" y="224" class="st4" width="26" height="5"/>
		<rect x="1074.3" y="229" class="st4" width="26" height="5"/>
		<rect x="1074.3" y="234" class="st4" width="26" height="5"/>
		<rect x="1074.3" y="239" class="st4" width="26" height="5"/>
		<rect x="1074.3" y="249" class="st4" width="26" height="5"/>
		<rect x="1100.3" y="223" class="st4" width="26" height="5"/>
		<rect x="1100.3" y="228" class="st4" width="26" height="5"/>
		<rect x="1100.3" y="233" class="st4" width="26" height="5"/>
		<rect x="1100.3" y="243" class="st4" width="26" height="5"/>
		<rect x="1100.3" y="248" class="st4" width="26" height="5"/>
	</g>
</g>
<rect id="r2-1-13" x="1125.3" y="143" class="st4" width="83.4" height="95"/>
<rect id="r2-1-14" x="1208.6" y="143" class="st4" width="58.6" height="84"/>
<rect id="r2-1-3" x="1266.9" y="143" class="st4" width="66.9" height="84"/>
<rect id="r2-1-2" x="1333.8" y="143" class="st4" width="84.4" height="95"/>
<polygon id="r2-1-12" class="st4" points="1125.8,238 1125.8,305.9 1140.5,321 1208.6,321 1208.6,238 "/>
<polygon id="r2-1-1" class="st4" points="1417.8,237.5 1417.8,305.4 1402.8,320.5 1333.8,320.5 1333.8,237.5 "/>
<rect id="r2-3-4" x="1559.3" y="219" class="st4" width="158" height="80"/>
<polygon id="r2-3-2" class="st4" points="1468.3,219 1467.3,291 1474.3,291 1474.3,300 1559.3,299 1559.3,219 "/>
<polygon id="r2-3-6" class="st4" points="1748.4,285 1811.8,285 1811.8,219 1717.3,219 1717.3,299 1748.4,299 "/>
<rect id="r12_15_" x="1417.8" y="191" class="st4" width="50" height="100"/>
<g>
	<rect x="1417.8" y="219" class="st4" width="25" height="5"/>
	<rect x="1417.8" y="224" class="st4" width="25" height="5"/>
	<rect x="1417.8" y="229" class="st4" width="25" height="5"/>
	<rect x="1417.8" y="234" class="st4" width="25" height="5"/>
	<rect x="1417.8" y="239" class="st4" width="25" height="5"/>
	<rect x="1417.8" y="244" class="st4" width="25" height="5"/>
</g>
<g>
	<rect x="1443.3" y="223" class="st4" width="25" height="5"/>
	<rect x="1443.3" y="228" class="st4" width="25" height="5"/>
	<rect x="1443.3" y="233" class="st4" width="25" height="5"/>
	<rect x="1443.3" y="238" class="st4" width="25" height="5"/>
	<rect x="1443.3" y="243" class="st4" width="25" height="5"/>
	<rect x="1443.3" y="248" class="st4" width="25" height="5"/>
</g>
<rect x="1461.3" y="330" class="st4" width="81" height="95"/>
<rect id="r2-3-4_1_" x="1542.3" y="330" class="st4" width="78" height="95"/>
<rect id="r2-3-5" x="1620.3" y="330" class="st4" width="125" height="95"/>
<polygon id="r2-3-toilette" class="st4" points="1745.3,352 1745.3,406 1752.3,406 1752.3,430 1755.3,433 1790.3,433 1790.3,352 "/>
<polygon class="st4" points="1831.3,410.8 1831.3,326 1790.8,326 1790.8,415.5 1827.1,415.5 "/>
<g>
	<rect x="1810.8" y="348" class="st4" width="20" height="5"/>
	<rect x="1810.8" y="353" class="st4" width="20" height="5"/>
	<rect x="1810.8" y="358" class="st4" width="20" height="5"/>
	<rect x="1810.8" y="363" class="st4" width="20" height="5"/>
	<rect x="1810.8" y="368" class="st4" width="20" height="5"/>
	<rect x="1810.8" y="373" class="st4" width="20" height="5"/>
	<rect x="1790.8" y="347" class="st4" width="20" height="5"/>
	<rect x="1790.8" y="352" class="st4" width="20" height="5"/>
	<rect x="1790.8" y="357" class="st4" width="20" height="5"/>
	<rect x="1790.8" y="362" class="st4" width="20" height="5"/>
	<rect x="1790.8" y="367" class="st4" width="20" height="5"/>
	<rect x="1790.8" y="372" class="st4" width="20" height="5"/>
</g>
<rect id="r2-1-9" x="1130.3" y="420" class="st4" width="131" height="63"/>
<rect id="r2-1-7" x="1261.3" y="420" class="st4" width="151" height="63"/>
<rect id="r2-4-22-a" x="158.3" y="199" class="st4" width="80" height="141"/>
<polygon id="r2-4-22" class="st4" points="238.3,199.5 238.3,339.3 305.3,339.3 305.3,362.5 327.3,362.5 327.3,339.3 327.3,199.5 
	"/>
<rect x="94.3" y="340" class="st4" width="99" height="48"/>
<rect x="225.3" y="340" class="st4" width="80" height="48"/>
<rect x="193.3" y="340" class="st4" width="45" height="48"/>
<g>
	<rect x="366.7" y="334.2" class="st4" width="15" height="5.2"/>
	<g>
		<rect x="366.7" y="324.2" class="st4" width="15" height="5"/>
		<rect x="366.7" y="339.2" class="st4" width="15" height="5"/>
		<rect x="366.7" y="329.2" class="st4" width="15" height="5"/>
		<rect x="366.7" y="319.2" class="st4" width="15" height="5"/>
		<rect x="366.7" y="314.2" class="st4" width="15" height="5"/>
	</g>
</g>
<rect id="r2-4-21" x="327.3" y="199" class="st4" width="41" height="74"/>
<rect id="r2-4-5" x="368.3" y="199" class="st4" width="41" height="74"/>
<rect id="r2-4-3" x="409.3" y="199" class="st4" width="118" height="118"/>
<polygon id="r2-4-1" class="st4" points="528.3,199 528.3,317 631.3,317 631.3,344 666.3,344 666.3,317 666.3,315 666.3,199 "/>
<polygon class="st4" points="607.3,474 607.3,535 587.3,535 587.3,609 671.3,609 671.3,548 671.3,535 671.3,474 "/>
<rect id="r2-2-3" x="889.3" y="336" class="st4" width="110" height="92"/>
<rect id="r2-2-1" x="999.3" y="336" class="st4" width="79" height="92"/>
<polygon id="r2-2-6" class="st4" points="735.7,227 729.3,233.4 729.3,302 800.3,302 800.3,313 834.3,313 834.3,302 834.3,227 "/>
<rect id="r2-4-4" x="834.3" y="227" class="st4" width="153" height="86"/>
<rect id="r2-4-2" x="987.3" y="227" class="st4" width="86" height="86"/>
<rect id="r2-1-14_1_" x="1233.3" y="228" class="st4" width="77" height="80"/>
<text transform="matrix(1 0 0 1 64.3232 190.918)" class="st9 st12">2.4</text>
<text transform="matrix(1 0 0 1 729.3232 218.918)" class="st9 st12">2.2</text>
<text transform="matrix(1 0 0 1 1781.3232 210.918)" class="st9 st12">2.3</text>
<text transform="matrix(0.7738 0 0 1 677.9063 461.9092)" class="st9 st14">ÜBERGANG</text>
<text transform="matrix(1 0 0 1 103.3232 277.374)" class="st9 st11">22b</text>
<text transform="matrix(1 0 0 1 188.3232 277.374)" class="st9 st11">22a</text>
<text transform="matrix(1 0 0 1 139.3232 367.374)" class="st9 st11">26</text>
<text transform="matrix(1 0 0 1 209.3232 367.374)" class="st9 st11">25</text>
<text transform="matrix(1 0 0 1 265.3232 367.374)" class="st9 st11">23</text>
<text transform="matrix(1 0 0 1 138.3232 453.374)" class="st9 st11">34</text>
<text transform="matrix(1 0 0 1 206.3232 452.374)" class="st9 st11">33</text>
<rect id="r2-4-31" x="228.3" y="425" class="st4" width="80" height="48"/>
<rect id="r2-4-33" x="196.3" y="425" class="st4" width="45" height="48"/>
<text transform="matrix(1 0 0 1 212.3232 453.374)" class="st9 st11">33</text>
<text transform="matrix(1 0 0 1 269.3232 453.374)" class="st9 st11">31</text>
<text transform="matrix(1 0 0 1 103.3232 538.374)" class="st9 st11">29</text>
<text transform="matrix(1 0 0 1 188.3232 538.374)" class="st9 st11">29a</text>
<text transform="matrix(1 0 0 1 276.3232 277.374)" class="st9 st11">22</text>
<text transform="matrix(1 0 0 1 280.3232 538.374)" class="st9 st11">30</text>
<text transform="matrix(1 0 0 1 351.3232 477.374)" class="st9 st11">WC</text>
<text transform="matrix(1 0 0 1 496.3232 471.374)" class="st9 st11">08</text>
<text transform="matrix(1 0 0 1 458.3232 263.374)" class="st9 st11">03</text>
<text transform="matrix(1 0 0 1 594.3232 263.374)" class="st9 st11">01</text>
<text transform="matrix(1 0 0 1 343.3232 239.374)" class="st9 st11">21</text>
<text transform="matrix(1 0 0 1 383.3232 240.374)" class="st9 st11">05</text>
<text transform="matrix(1 0 0 1 347.3232 572.374)" class="st9 st11">18</text>
<text transform="matrix(1 0 0 1 381.3232 572.374)" class="st9 st11">17</text>
<text transform="matrix(1 0 0 1 415.3232 573.374)" class="st9 st11">16</text>
<text transform="matrix(1 0 0 1 455.3232 572.374)" class="st9 st11">15</text>
<text transform="matrix(1 0 0 1 491.3232 572.374)" class="st9 st11">14</text>
<text transform="matrix(1 0 0 1 522.3232 572.374)" class="st9 st11">13</text>
<text transform="matrix(1 0 0 1 561.3232 572.374)" class="st9 st11">12</text>
<text transform="matrix(1 0 0 1 631.3232 451.374)" class="st9 st11">WC</text>
<rect x="615" y="475.7" class="st4" width="56.3" height="32"/>
<rect x="657.8" y="490.2" class="st4" width="5.2" height="17.5"/>
<g>
	<rect x="647.8" y="491.2" class="st4" width="5" height="16.5"/>
	<rect x="662.8" y="491.2" class="st4" width="5" height="16.5"/>
	<rect x="652.8" y="491.2" class="st4" width="5" height="16.5"/>
	<rect x="642.8" y="491.2" class="st4" width="5" height="16.5"/>
	<rect x="637.8" y="491.2" class="st4" width="5" height="16.5"/>
</g>
<g>
	<rect x="651.8" y="476.2" class="st4" width="5.2" height="15"/>
	<g>
		<rect x="641.8" y="476.2" class="st4" width="5" height="15"/>
		<rect x="656.8" y="476.2" class="st4" width="5" height="15"/>
		<rect x="646.8" y="476.2" class="st4" width="5" height="15"/>
		<rect x="636.8" y="476.2" class="st4" width="5" height="15"/>
		<rect x="631.8" y="476.2" class="st4" width="5" height="15"/>
	</g>
</g>
<text transform="matrix(1 0 0 1 767.3232 400.374)" class="st9 st11">WC</text>
<text transform="matrix(1 0 0 1 450.3232 366.374)" class="st9 st11">07</text>
<text transform="matrix(1 0 0 1 551.3232 365.374)" class="st9 st11">06</text>
<text transform="matrix(1 0 0 1 776.3232 268.374)" class="st9 st11">06</text>
<text transform="matrix(1 0 0 1 903.3232 268.374)" class="st9 st11">04</text>
<text transform="matrix(1 0 0 1 837.3232 385.374)" class="st9 st11">05</text>
<text transform="matrix(1 0 0 1 938.3232 385.374)" class="st9 st11">03 </text>
<text transform="matrix(1 0 0 1 1022.3232 271.374)" class="st9 st11">02</text>
<text transform="matrix(1 0 0 1 1035.3232 385.374)" class="st9 st11">01</text>
<text transform="matrix(1 0 0 1 1160.3232 199.374)" class="st9 st11">13</text>
<text transform="matrix(1 0 0 1 1231.3232 188.374)" class="st9 st11">14</text>
<text transform="matrix(1 0 0 1 1369.3232 192.374)" class="st9 st11">02</text>
<text transform="matrix(1 0 0 1 1258.3232 131.918)" class="st9 st12">2.1</text>
<text transform="matrix(1 0 0 1 1294.3232 188.374)" class="st9 st11">03</text>
<text transform="matrix(1 0 0 1 1366.3232 279.374)" class="st9 st11">01</text>
<text transform="matrix(1 0 0 1 1160.3232 283.374)" class="st9 st11">12</text>
<text transform="matrix(1 0 0 1 1264.3232 273.374)" class="st9 st11">04</text>
<text transform="matrix(1 0 0 1 1187.3232 453.374)" class="st9 st11">09</text>
<text transform="matrix(1 0 0 1 1331.3232 453.374)" class="st9 st11">07</text>
<text transform="matrix(1 0 0 1 1507.3232 261.374)" class="st9 st11">02</text>
<text transform="matrix(1 0 0 1 1631.3232 261.374)" class="st9 st11">04</text>
<text transform="matrix(1 0 0 1 1759.3232 261.374)" class="st9 st11">06</text>
<text transform="matrix(1 0 0 1 1760.3232 391.374)" class="st9 st11">WC</text>
<text transform="matrix(1 0 0 1 1675.3232 379.374)" class="st9 st11">05</text>
<text transform="matrix(1 0 0 1 1571.3232 379.374)" class="st9 st11">03</text>
<text transform="matrix(1 0 0 1 1493.3232 380.374)" class="st9 st11">01</text>
<text transform="matrix(1.0343 0 0 1 1644.2207 715.582)" class="st9 st10">EBENE 2</text>
</svg>
