<?xml version="1.0" encoding="utf-8"?>
<!-- Generator: Adobe Illustrator 23.0.0, SVG Export Plug-In . SVG Version: 6.00 Build 0)  -->
<svg width= "800" version="1.1" id="Layer_1" xmlns="http://www.w3.org/2000/svg" xmlns:xlink="http://www.w3.org/1999/xlink" x="0px" y="0px"
	 viewBox="0 0 1920 733" style="enable-background:new 0 0 1920 733;" xml:space="preserve">
<style type="text/css">
	.st0{fill:#BCBCBC;stroke:#000000;stroke-miterlimit:10;}
	.st1{fill:#FFFFFF;stroke:#000000;stroke-miterlimit:10;}
	.st2{opacity:0.7;fill:#FFFFFF;stroke:#000000;stroke-miterlimit:10;}
	.st3{opacity:0.3;fill:#FFFFFF;stroke:#000000;stroke-miterlimit:10;}
	.st4{font-family:'MyriadPro-Regular';}
	.st5{font-size:61.6679px;}
	.st6{font-size:12px;}
	.st7{font-size:34.1556px;}
	.st8{fill:#FF0000;}
	.st9{font-size:22.1902px;}
</style>
<image style="display:none;overflow:visible;opacity:0.49;" width="2560" height="1920" id="background" xlink:href="ebene_1.jpg"  transform="matrix(0.7458 0 0 0.7458 9 -423)">
</image>
<rect id="back_x5F_print" x="67.5" y="201.5" class="st0" width="613" height="404"/>
<polygon id="ground-1" class="st0" points="1820,291.5 1820,42.5 1469,42.5 1469,281.5 1091.5,281.5 1091.5,69.5 753.5,69.5 
	753.5,302.5 758.5,302.5 758.5,331.5 753.5,331.5 753.5,407.5 1091.5,407.5 1820.5,407.5 1820.5,322.5 1808.5,322.5 1808.5,291.5 
	"/>
<rect id="_x31_-2-12" x="753.5" y="68.5" class="st1" width="95" height="73"/>
<rect id="_x31_-2-13" x="848.5" y="68.5" class="st1" width="78" height="73"/>
<rect id="_x31_-2-15" x="925.5" y="68.5" class="st1" width="77" height="73"/>
<rect id="_x31_-2-11" x="753.5" y="141.5" class="st1" width="73" height="86"/>
<rect id="_x31_-2-10" x="743.5" y="227.5" class="st1" width="83" height="75"/>
<rect id="_x31_-2-14" x="848.5" y="174.5" class="st1" width="133" height="44"/>
<rect id="_x31_-2-03" x="848.5" y="218.5" class="st1" width="133" height="80"/>
<polygon id="_x31_-2-17" class="st1" points="1002.5,161.5 1002.5,298 1068.5,298 1068.5,286.9 1091.5,286.9 1091.5,161.5 "/>
<rect id="_x31_-1-stairs" x="1091.5" y="194.5" class="st1" width="50" height="99"/>
<rect x="1091.5" y="222.5" class="st1" width="25" height="5"/>
<rect x="1091.5" y="227.5" class="st1" width="25" height="5"/>
<rect x="1091.5" y="232.5" class="st1" width="25" height="5"/>
<rect x="1091.5" y="237.5" class="st1" width="25" height="5"/>
<rect x="1091.5" y="242.5" class="st1" width="25" height="5"/>
<rect x="1091.5" y="247.5" class="st1" width="25" height="5"/>
<rect x="1116.5" y="221.5" class="st1" width="25" height="5"/>
<rect x="1116.5" y="226.5" class="st1" width="25" height="5"/>
<rect x="1116.5" y="231.5" class="st1" width="25" height="5"/>
<rect x="1116.5" y="236.5" class="st1" width="25" height="5"/>
<rect x="1116.5" y="241.5" class="st1" width="25" height="5"/>
<rect x="1116.5" y="246.5" class="st1" width="25" height="5"/>
<rect x="1141.5" y="237.5" class="st1" width="34" height="45"/>
<polygon id="_x31_-1-cafetaria" class="st1" points="1335.5,260 1335.5,191.5 1278.5,191.5 1278.5,179.9 1267.1,168.5 1189,168.5 
	1175.5,182 1175.5,282.5 1190.5,282.5 1190.5,293.1 1201.9,304.5 1311.5,304.5 1311.5,271.5 1324,271.5 "/>
<polygon id="_x31_-1-16" class="st1" points="1378.5,191.5 1335.5,191.5 1335.5,248.5 1392.5,248.5 1392.5,205.5 "/>
<polygon id="_x31_-1-15" class="st1" points="1335.5,248.5 1335.5,260.5 1323.5,271.5 1311.5,271.5 1311.5,304.5 1322.5,314.5 
	1380.3,314.5 1392.5,302.3 1392.5,247.5 "/>
<rect x="1392.5" y="233.5" class="st1" width="33" height="48"/>
<rect id="_x31_-3-02" x="1469.5" y="168.5" class="st1" width="105" height="111"/>
<rect id="_x31_-3-15" x="1469.5" y="42.5" class="st1" width="82.2" height="102"/>
<rect id="_x31_-3-14" x="1551.7" y="42.5" class="st1" width="89.4" height="102"/>
<rect id="_x31_-3-13" x="1641.2" y="42.5" class="st1" width="89.4" height="102"/>
<rect id="_x31_-3-12" x="1730.6" y="42.5" class="st1" width="89.4" height="102"/>
<rect id="_x31_-3-04" x="1574.5" y="178.5" class="st1" width="55" height="90"/>
<rect id="_x31_-3-06" x="1681.5" y="176.5" class="st1" width="55" height="89"/>
<path class="st1" d="M1737.5,179.5"/>
<path class="st1" d="M1737.5,195.4"/>
<path id="_x31_-3-08" class="st1" d="M1746.5,144.5c0,10.4,0,20.9,0,31.3c0,0.2,0,0.5,0,0.7h-10v96h10h73v-128
	C1795.2,144.5,1770.8,144.5,1746.5,144.5z"/>
<rect x="1709.5" y="265.5" class="st1" width="27" height="7"/>
<rect x="1574.5" y="268.5" class="st1" width="27" height="7"/>
<rect id="_x31_-3-01" x="1509.5" y="319.5" class="st1" width="58" height="87"/>
<rect id="_x31_-3-03" x="1567.5" y="319.5" class="st1" width="58" height="87"/>
<rect id="_x31_-3-05" x="1622.5" y="319.5" class="st1" width="77" height="87"/>
<rect id="_x31_-3-07" x="1699.5" y="319.5" class="st1" width="55" height="87"/>
<polygon class="st1" points="1509.5,406.5 1480.5,406.5 1479.5,373.5 1488.5,372.5 1487.5,340.5 1477.5,327.5 1487.5,319.5 
	1509.5,319.5 "/>
<polygon id="_x31_-3-toilette" class="st1" points="1754.5,349.5 1754.5,406.5 1768.5,406.5 1768.5,424.5 1803,424.5 1803,349.5 "/>
<polygon class="st1" points="1843.5,405 1843.5,322 1803,322 1803,409.5 1839.3,409.5 "/>
<polygon id="_x31_-1-mensa" class="st1" points="1417.4,587.5 1435.8,587.5 1446,577.5 1446,483.2 1435.2,470.5 1417.4,470.5 
	1417.4,406.5 1179.5,406.5 1179.5,525.5 1203,525.5 1203,543.5 1229.5,543.5 1229.5,587.5 "/>
<polygon class="st1" points="1228.5,587.5 1228.5,543.5 1202.5,543.5 1202.5,525.5 1179.5,525.5 1179.5,406.5 1147.5,406.5 
	1147.5,446.5 1138,446.5 1126.5,458 1126.5,625.5 1232.5,625.5 1232.5,587.5 "/>
<rect id="_x31_-2-05" x="814.5" y="329.5" class="st1" width="81" height="77"/>
<rect id="_x31_-2-02" x="895.5" y="329.5" class="st1" width="151" height="77"/>
<polygon id="_x31_-2-01" class="st1" points="1080.1,373.5 1080.1,329.5 1046,329.5 1046,406.5 1057.4,406.5 1080.1,406.5 
	1093.5,406.5 1093.5,373.5 "/>
<polygon id="_x31_-1-toilette_1_" class="st1" points="1162.3,371.5 1147,387.7 1147,406.5 1203.5,406.5 1203.5,371.5 "/>
<polygon class="st1" points="1306.5,362.5 1306.5,367.5 1268.5,367.5 1268.5,362.5 1237.5,362.5 1237.5,406.5 1335.5,406.5 
	1335.5,362.5 "/>
<polygon id="_x31_-1-toilette" class="st1" points="1402.2,372.5 1417.5,388.7 1417.5,407.5 1361,407.5 1361,372.5 "/>
<rect id="r12_8_" x="1425.5" y="192.5" class="st1" width="43.5" height="99"/>
<rect x="1425.5" y="220.5" class="st1" width="21.8" height="5"/>
<rect x="1425.5" y="225.5" class="st1" width="21.8" height="5"/>
<rect x="1425.5" y="230.5" class="st1" width="21.8" height="5"/>
<rect x="1425.5" y="235.5" class="st1" width="21.8" height="5"/>
<rect x="1425.5" y="240.5" class="st1" width="21.8" height="5"/>
<rect x="1425.5" y="245.5" class="st1" width="21.8" height="5"/>
<rect x="1447.3" y="219.5" class="st1" width="21.8" height="5"/>
<rect x="1447.3" y="224.5" class="st1" width="21.8" height="5"/>
<rect x="1447.3" y="229.5" class="st1" width="21.8" height="5"/>
<rect x="1447.3" y="234.5" class="st1" width="21.8" height="5"/>
<rect x="1447.3" y="239.5" class="st1" width="21.8" height="5"/>
<rect x="1447.3" y="244.5" class="st1" width="21.8" height="5"/>
<rect x="804.5" y="263.5" class="st1" width="22" height="39"/>
<polygon class="st1" points="806.8,427.8 806.8,408.5 814.5,408.5 814,351.5 769,351.5 769,428.3 770.6,430 804.3,430.5 "/>
<polygon class="st1" points="727,412.5 727,331 769,331 769,417 731.3,417 "/>
<g>
	<rect x="1823" y="346.5" class="st1" width="20" height="5"/>
	<rect x="1823" y="351.5" class="st1" width="20" height="5"/>
	<rect x="1823" y="356.5" class="st1" width="20" height="5"/>
	<rect x="1823" y="361.5" class="st1" width="20" height="5"/>
	<rect x="1823" y="366.5" class="st1" width="20" height="5"/>
	<rect x="1823" y="371.5" class="st1" width="20" height="5"/>
	<rect x="1803" y="345.5" class="st1" width="20" height="5"/>
	<rect x="1803" y="350.5" class="st1" width="20" height="5"/>
	<rect x="1803" y="355.5" class="st1" width="20" height="5"/>
	<rect x="1803" y="360.5" class="st1" width="20" height="5"/>
	<rect x="1803" y="365.5" class="st1" width="20" height="5"/>
	<rect x="1803" y="370.5" class="st1" width="20" height="5"/>
</g>
<g>
	<rect x="727" y="377.5" class="st1" width="20.8" height="5"/>
	<rect x="747.8" y="371.5" class="st1" width="20.8" height="5"/>
	<g>
		<rect x="727" y="357.5" class="st1" width="20.8" height="5"/>
		<rect x="727" y="362.5" class="st1" width="20.8" height="5"/>
		<rect x="727" y="367.5" class="st1" width="20.8" height="5"/>
		<rect x="727" y="372.5" class="st1" width="20.8" height="5"/>
		<rect x="727" y="382.5" class="st1" width="20.8" height="5"/>
		<rect x="747.8" y="356.5" class="st1" width="20.8" height="5"/>
		<rect x="747.8" y="361.5" class="st1" width="20.8" height="5"/>
		<rect x="747.8" y="366.5" class="st1" width="20.8" height="5"/>
		<rect x="747.8" y="376.5" class="st1" width="20.8" height="5"/>
		<rect x="747.8" y="381.5" class="st1" width="20.8" height="5"/>
	</g>
</g>
<rect id="_x31_-2-16" x="1002.5" y="68.5" class="st1" width="89" height="73"/>
<g>
	<polygon class="st1" points="1299,398 1276.5,398 1276.5,375.5 1299,375.5 1299,377.9 	"/>
	<line class="st1" x1="1276.5" y1="398" x2="1299" y2="375.5"/>
	<line class="st1" x1="1299" y1="398" x2="1276.5" y2="375.5"/>
</g>
<rect id="_x31_-4-29" x="67.5" y="488.5" class="st1" width="92" height="117"/>
<rect id="_x31_-4-28" x="159.5" y="488.5" class="st1" width="89" height="117"/>
<polygon id="_x31_-4-27" class="st1" points="337.5,488.5 248.5,488.5 248.5,605.5 337.5,605.5 337.5,507.5 359.5,507.5 
	359.5,488.5 "/>
<rect id="_x31_-4-17" x="337.5" y="507.5" class="st1" width="40" height="98"/>
<polygon id="_x31_-4-15" class="st1" points="415.5,462.5 415.5,521.5 427.5,521.5 427.5,605.5 516.5,605.5 516.5,462.5 "/>
<rect id="_x31_-4-16" x="377.5" y="521.5" class="st1" width="50" height="84"/>
<rect id="_x31_-4-12" x="415.5" y="413.5" class="st1" width="84" height="48"/>
<rect x="499.5" y="413.5" class="st1" width="17" height="48"/>
<polygon id="_x31_-4-11" class="st1" points="516.5,413 516.5,489.8 585.5,489.8 585.5,605.5 680.5,605.5 680.5,413 "/>
<rect id="_x31_-4-01" x="642.5" y="556.5" class="st2" width="38" height="49"/>
<polygon id="_x31_-4-19" class="st1" points="92.5,336.5 140.5,336.5 140.5,201.5 67.5,201.5 67.5,351.5 92.5,351.5 "/>
<polygon id="_x31_-4-19-a" class="st1" points="140.5,201.5 140.5,336.5 310.5,336.5 310.5,351.5 364,351.5 364,201.5 "/>
<rect id="_x31_-4-23-25" x="92.5" y="336.5" class="st1" width="103" height="52"/>
<rect id="_x31_-4-23-25_1_" x="195.5" y="336.5" class="st1" width="115" height="52"/>
<rect id="_x31_-4-30-32" x="93.5" y="417.5" class="st1" width="100" height="52"/>
<rect id="_x31_-4-26" x="193.5" y="417.5" class="st1" width="117" height="52"/>
<g id="_x3C_Group_x3E_stairs">
	<rect x="629.5" y="466.5" class="st2" width="51" height="28"/>
	<rect x="644.3" y="467" class="st1" width="5" height="13.5"/>
	<rect x="650.3" y="480.5" class="st1" width="5" height="13.5"/>
	<g>
		<rect x="664.3" y="467" class="st1" width="5" height="13.5"/>
		<rect x="659.3" y="467" class="st1" width="5" height="13.5"/>
		<rect x="654.3" y="467" class="st1" width="5" height="13.5"/>
		<rect x="649.3" y="467" class="st1" width="5" height="13.5"/>
		<rect x="639.3" y="467" class="st1" width="5" height="13.5"/>
		<rect x="665.3" y="480.5" class="st1" width="5" height="13.5"/>
		<rect x="660.3" y="480.5" class="st1" width="5" height="13.5"/>
		<rect x="655.3" y="480.5" class="st1" width="5" height="13.5"/>
		<rect x="645.3" y="480.5" class="st1" width="5" height="13.5"/>
		<rect x="640.3" y="480.5" class="st1" width="5" height="13.5"/>
	</g>
</g>
<polygon id="_x31_-4-02-a" class="st1" points="416,348.5 416,335.5 516.5,335.5 553.5,335.5 553.5,201.5 383.5,201.5 383.5,294 
	391,294 391,348.5 "/>
<polygon id="_x31_-4-toilette" class="st1" points="393.5,507.5 359.5,507.5 359.5,488.5 333.5,488.5 333.5,427.5 393.5,427.5 "/>
<rect x="377" y="321.8" class="st1" width="13.5" height="5"/>
<rect x="363.5" y="314.8" class="st1" width="13.5" height="5"/>
<rect x="377" y="341.8" class="st1" width="13.5" height="5"/>
<rect x="377" y="336.8" class="st1" width="13.5" height="5"/>
<rect x="377" y="331.8" class="st1" width="13.5" height="5"/>
<rect x="642.5" y="336.5" class="st1" width="38" height="32"/>
<rect x="377" y="326.8" class="st1" width="13.5" height="5"/>
<rect x="377" y="316.8" class="st1" width="13.5" height="5"/>
<rect x="363.5" y="329.8" class="st1" width="13.5" height="5"/>
<rect x="363.5" y="324.8" class="st1" width="13.5" height="5"/>
<rect x="363.5" y="319.8" class="st1" width="13.5" height="5"/>
<rect x="363.5" y="309.8" class="st1" width="13.5" height="5"/>
<rect x="363.5" y="304.8" class="st1" width="13.5" height="5"/>
<rect x="363.5" y="201.5" class="st1" width="20" height="92"/>
<rect id="_x31_-4-04" x="383.5" y="201.5" class="st1" width="45" height="69"/>
<rect x="339" y="318.5" transform="matrix(-1.836970e-16 1 -1 -1.836970e-16 709.5 -45)" class="st1" width="76.5" height="27.5"/>
<rect id="_x31_-4-10" x="415.5" y="334.5" class="st1" width="104" height="52"/>
<rect id="_x31_-4-05" x="519.5" y="334.5" class="st1" width="102" height="52"/>
<polygon id="_x31_-4-02" class="st1" points="553.5,201.5 553.5,334.5 621.5,334.5 621.5,355.5 642.5,355.5 642.5,309.5 
	680.5,309.5 680.5,201.5 "/>
<rect x="642.5" y="309.5" class="st3" width="38" height="27"/>
<g>
	<polygon class="st1" points="672,362 650.5,362 650.5,340.5 672,340.5 672,342.8 	"/>
	<line class="st1" x1="650.5" y1="362" x2="672" y2="340.5"/>
	<line class="st1" x1="672" y1="362" x2="650.5" y2="340.5"/>
</g>
<rect x="642.5" y="309.5" class="st1" width="38" height="27"/>
<polygon class="st1" points="23,297 23,386.2 24.8,388 67,388 67,297 "/>
<g>
	<rect x="46" y="334" class="st1" width="21" height="5"/>
	<rect x="46" y="354" class="st1" width="21" height="5"/>
	<rect x="46" y="349" class="st1" width="21" height="5"/>
	<rect x="46" y="344" class="st1" width="21" height="5"/>
	<rect x="46" y="339" class="st1" width="21" height="5"/>
	<rect x="46" y="329" class="st1" width="21" height="5"/>
</g>
<g>
	<rect x="23.3" y="344" class="st1" width="22.7" height="5"/>
	<rect x="23.3" y="359" class="st1" width="22.7" height="5"/>
	<rect x="23.3" y="354" class="st1" width="22.7" height="5"/>
	<rect x="23.3" y="349" class="st1" width="22.7" height="5"/>
	<rect x="23.3" y="339" class="st1" width="22.7" height="5"/>
	<rect x="23.3" y="334" class="st1" width="22.7" height="5"/>
</g>
<text transform="matrix(1.0343 0 0 1 1644.2207 715.582)" class="st4 st5">EBENE 1</text>
<rect id="_x31_-4-11-a" x="516.5" y="488.5" class="st1" width="69" height="117"/>
<text transform="matrix(1 0 0 1 847.3696 367.1401)" class="st4 st6">05</text>
<text transform="matrix(1 0 0 1 963.3696 367.1401)" class="st4 st6">02</text>
<text transform="matrix(1 0 0 1 1058.3696 367.1401)" class="st4 st6">01</text>
<text transform="matrix(1 0 0 1 774.3696 263.1401)" class="st4 st6">10</text>
<text transform="matrix(1 0 0 1 783.3696 199.1401)" class="st4 st6">11</text>
<text transform="matrix(1 0 0 1 790.3696 119.1401)" class="st4 st6">12</text>
<text transform="matrix(1 0 0 1 878.3696 119.1401)" class="st4 st6">13</text>
<text transform="matrix(1 0 0 1 953.3696 119.1401)" class="st4 st6">15</text>
<text transform="matrix(1 0 0 1 1035.3696 119.1401)" class="st4 st6">16</text>
<text transform="matrix(1 0 0 1 904.3696 207.1401)" class="st4 st6">14</text>
<text transform="matrix(1 0 0 1 907.3696 265.1401)" class="st4 st6">03</text>
<text transform="matrix(1 0 0 1 1033.3696 234.1401)" class="st4 st6">17</text>
<text transform="matrix(1 0 0 1 1219.4463 247.9043)" class="st4 st6">CAFETARIA</text>
<text transform="matrix(1 0 0 1 1353.3696 225.1401)" class="st4 st6">16</text>
<text transform="matrix(1 0 0 1 1353.3696 281.1401)" class="st4 st6">15</text>
<text transform="matrix(1 0 0 1 1501.0254 100.5415)" class="st4 st6">15</text>
<text transform="matrix(1 0 0 1 1584.0254 100.5415)" class="st4 st6">14</text>
<text transform="matrix(1 0 0 1 1677.0254 100.5415)" class="st4 st6">13</text>
<text transform="matrix(1 0 0 1 1768.0254 100.5415)" class="st4 st6">12</text>
<text transform="matrix(1 0 0 1 1512.3945 229.8916)" class="st4 st6">02</text>
<text transform="matrix(1 0 0 1 1593.3945 230.8916)" class="st4 st6">04</text>
<text transform="matrix(1 0 0 1 1705.3945 230.8916)" class="st4 st6">06</text>
<text transform="matrix(1 0 0 1 1769.3945 230.8916)" class="st4 st6">08</text>
<text transform="matrix(1 0 0 1 1484.5029 385.4839)" class="st4 st6">HM</text>
<text transform="matrix(1 0 0 1 1529.9043 366.2993)" class="st4 st6">01</text>
<text transform="matrix(1 0 0 1 1587.9043 365.2993)" class="st4 st6">03</text>
<text transform="matrix(1 0 0 1 1652.9043 365.2993)" class="st4 st6">05</text>
<text transform="matrix(1 0 0 1 1719.9043 365.2993)" class="st4 st6">07</text>
<text transform="matrix(1 0 0 1 1770.79 374.6436)" class="st4 st6">WC</text>
<text transform="matrix(1 0 0 1 1373.79 394.6436)" class="st4 st6">WC</text>
<text transform="matrix(1 0 0 1 1167.79 390.6436)" class="st4 st6">WC</text>
<text transform="matrix(1 0 0 1 1274.4463 492.9043)" class="st4 st6">MENSA</text>
<text transform="matrix(1 0 0 1 1147.4463 575.9043)" class="st4 st6">KÜCHE</text>
<text transform="matrix(1 0 0 1 779.79 382.6436)" class="st4 st6">WC</text>
<text transform="matrix(1 0 0 1 95.5732 276.917)" class="st4 st6">19</text>
<text transform="matrix(1 0 0 1 229.5732 276.917)" class="st4 st6">19a</text>
<text transform="matrix(1 0 0 1 475.5732 276.917)" class="st4 st6">02a</text>
<text transform="matrix(1 0 0 1 598.5732 276.917)" class="st4 st6">02</text>
<text transform="matrix(1 0 0 1 130.4204 366.5542)" class="st4 st6">23-25</text>
<text transform="matrix(1 0 0 1 239.4204 367.5542)" class="st4 st6">20-22</text>
<text transform="matrix(1 0 0 1 125.4204 447.5542)" class="st4 st6">30-32</text>
<text transform="matrix(1 0 0 1 243.5732 447.917)" class="st4 st6">26</text>
<text transform="matrix(1 0 0 1 104.5732 552.917)" class="st4 st6">29</text>
<text transform="matrix(1 0 0 1 197.5732 552.917)" class="st4 st6">28</text>
<text transform="matrix(1 0 0 1 280.5732 552.917)" class="st4 st6">27</text>
<text transform="matrix(1 0 0 1 351.5732 563.917)" class="st4 st6">17</text>
<text transform="matrix(1 0 0 1 394.5732 568.917)" class="st4 st6">16</text>
<text transform="matrix(1 0 0 1 457.5732 546.917)" class="st4 st6">15</text>
<text transform="matrix(1 0 0 1 451.5732 443.917)" class="st4 st6">12</text>
<text transform="matrix(1 0 0 1 563.5732 462.917)" class="st4 st6">11</text>
<text transform="matrix(1 0 0 1 460.5732 364.917)" class="st4 st6">10</text>
<text transform="matrix(1 0 0 1 563.5732 364.917)" class="st4 st6">05</text>
<text transform="matrix(1 0 0 1 537.5732 546.917)" class="st4 st6">11a</text>
<text transform="matrix(1 0 0 1 656.5732 580.917)" class="st4 st6">01</text>
<text transform="matrix(1 0 0 1 349.6367 452.8979)" class="st4 st6">WC</text>
<text transform="matrix(1 0 0 1 399.5732 241.917)" class="st4 st6">04</text>
<text transform="matrix(1 0 0 1 67.5732 193.4609)" class="st4 st7">1.4</text>
<text transform="matrix(1 0 0 1 747.5732 60.4609)" class="st4 st7">1.2</text>
<text transform="matrix(1 0 0 1 1260.5732 65.4609)" class="st4 st7">1.1</text>
<text transform="matrix(1 0 0 1 1770.5732 38.4609)" class="st4 st7">1.3</text>
<polygon class="st8" points="686.4,399.6 703,383 703.3,416.6 "/>
<text transform="matrix(0.7738 0 0 1 686.1563 452.4521)" class="st4 st9">EINGANG</text>
<polygon class="st8" points="1453.8,416 1470.9,432.2 1437.4,433.4 "/>
<text transform="matrix(0.7738 0 0 1 1425.1563 458.4521)" class="st4 st9">EINGANG</text>
</svg>
