<?xml version="1.0" encoding="utf-8"?>
<!-- Generator: Adobe Illustrator 23.0.0, SVG Export Plug-In . SVG Version: 6.00 Build 0)  -->
<svg  version="1.1" id="Layer_1" xmlns="http://www.w3.org/2000/svg" xmlns:xlink="http://www.w3.org/1999/xlink" x="0px" y="0px"
	 viewBox="0 0 1459 1080" style="enable-background:new 0 0 1459 1080;" xml:space="preserve">
<style type="text/css">
	.st0{fill:#e2d2aa;stroke:#FFFFFF;stroke-miterlimit:10;}
	.st0:hover{fill:tomato;}
	.st1{opacity:0.49;fill:#FFFFFF;stroke:#000000;stroke-miterlimit:10;}
	.st2{font-family:'MyriadPro-Regular';}
	.st3{font-size:53.7971px;}
	#cafetaria:hover{fill:tomato;}
</style>
<rect id="stairs" x="754.8" y="265.1" class="st0" width="80.7" height="128.8"/>
<polygon id="cafetaria" class="st1" points="1205,385.7 1126.9,393.9 1114.6,422.7 1036.4,422.7 1036.3,401.3 969.9,401.4 
	937.7,375.4 937.7,163.6 965.5,117.2 1116.6,118.4 1147.5,159.5 1245.5,163.6 1245.5,311.4 1205,321.1 "/>
<path class="st0" d="M1205,321.1"/>
<polygon class="st0" points="1245.5,163.6 1324.3,163.6 1353,184.2 1353,264.4 1245.5,264.4 "/>
<polygon class="st0" points="1245.5,264.4 1353,264.4 1353,381.6 1332.5,404.2 1225.6,404.2 1205,385.7 1205,321.1 1235.9,309.6 "/>
<rect id="_x31_2" x="71.7" y="6.6" class="st0" width="193.3" height="119.2"/>
<rect id="_x31_3" x="267.6" y="6.6" class="st0" width="193.3" height="119.2"/>
<rect id="_x31_5" x="465.3" y="6.6" class="st0" width="193.3" height="119.2"/>
<rect x="658.6" y="6.6" class="st0" width="193.3" height="119.2"/>
<rect x="71.7" y="125.9" class="st0" width="139.8" height="191.2"/>
<rect x="267.6" y="208.1" class="st0" width="262.6" height="88.4"/>
<rect x="42" y="317.1" class="st0" width="173.5" height="130"/>
<rect x="267.6" y="296.5" class="st0" width="262.6" height="148"/>
<rect x="572.4" y="208.1" class="st0" width="182.8" height="236.4"/>
<polygon class="st0" points="104.5,578.2 104.5,668.7 105.3,668.7 105.3,726.2 171.1,726.2 171.1,668.7 195,668.7 195,578.2 "/>
<rect x="195" y="514.5" class="st0" width="164.5" height="150.1"/>
<rect x="364.2" y="514.5" class="st0" width="299.6" height="150.1"/>
<polygon class="st0" points="735.7,578.2 735.7,514.5 663.8,514.5 663.8,664.5 735.7,664.5 764.5,664.5 764.5,578.2 "/>
<polygon class="st0" points="867.8,626.2 867.8,578.2 904.9,562.5 978.9,562.5 978.9,626.2 882.2,626.2 "/>
<polygon class="st0" points="1405.8,708.5 1391.4,708.5 1393.4,589.5 937,594.4 931.2,856.5 969.9,856.5 969.9,889.4 1019.2,889.4 
	1019.2,965.5 1035.7,965.5 1409.9,965.5 1434.5,932.6 1434.5,737.2 "/>
<polygon class="st0" points="874,708.5 878.1,626.2 933.6,626.2 933.6,856.5 974.8,856.5 974.8,889.4 1024.1,889.4 1024.1,1072.4 
	822.6,1072.4 822.6,747.5 847.7,708.5 "/>
<text transform="matrix(1 0 0 1 1076.3477 747.9189)" class="st2 st3">MENSA</text>
<text transform="matrix(1 0 0 1 130.4165 75.4561)" class="st2 st3">12</text>
<text transform="matrix(1 0 0 1 959.7891 263.7471)" class="st2 st3">CAFETARIA</text>
</svg>
